<svg width="686" height="373" viewBox="0 0 686 373" fill="none" xmlns="http://www.w3.org/2000/svg">
<g clip-path="url(#clip0_82_53)">
<rect width="686" height="373" rx="40" fill="#609EAF"/>
<path d="M795.712 -292.003C786.113 -243.441 773.544 -195.25 754.035 -149.754C747.711 -135.003 740.606 -120.462 730.98 -107.62C711.351 -81.434 682.565 -63.9167 658.511 -41.7243C627.961 -13.5403 605.069 22.7685 592.388 62.3255C582.847 92.0906 575.429 128.954 556.816 154.666C539.907 178.025 499.753 180.802 474.639 191.169C448.916 201.788 426.782 220.417 411.125 243.343C402.924 255.354 396.462 268.579 392.189 282.487C388.104 295.789 389.141 312.053 372.003 315.311C366.339 316.387 360.515 315.191 354.749 315.202C334.708 315.242 316.077 332.014 313.941 351.941M795.039 -290.114C786.366 -241.938 774.298 -193.863 754.921 -148.594C748.477 -133.513 741.027 -118.861 731.398 -105.625C719.762 -89.672 704.885 -76.7269 689.61 -64.0975C679.183 -55.4757 668.569 -47.0018 658.67 -37.8207C639.115 -19.682 622.363 1.44388 609.081 24.3198C601.315 37.6961 594.739 51.671 589.495 66.031C585.795 76.1024 582.329 86.9632 578.581 97.9051C573.294 113.279 567.441 128.813 559.656 142.727C556.866 147.727 553.828 152.517 550.476 156.996C536.61 175.502 509.006 181.963 485.869 189.497C479.657 191.506 473.766 193.593 468.543 196.013C447.022 205.906 428.278 221.503 413.952 240.483C411.484 243.75 409.147 247.119 406.947 250.58C399.101 262.919 392.948 276.442 388.764 290.6C386.287 298.986 385.658 308.463 381.493 315.354C378.93 319.598 375.026 322.829 368.558 324.261C362.907 325.512 357.086 324.585 351.306 324.802C331.23 325.539 312.387 342.383 309.818 362.505M794.365 -288.228C786.619 -240.435 775.051 -192.478 755.804 -147.433C749.24 -132.019 741.446 -117.259 731.813 -103.631C720.207 -87.2907 705.355 -73.9009 690.023 -60.8845C679.555 -51.9955 668.861 -43.2797 658.822 -33.9173C638.989 -15.4271 621.716 5.80438 607.689 28.5274C599.488 41.8122 592.406 55.6099 586.596 69.7364C582.475 79.6522 578.572 90.307 574.391 101.025C568.48 116.09 562.004 131.285 553.736 145.099C550.782 150.058 547.602 154.833 544.128 159.329C529.725 177.929 502.284 185.228 479.476 193.662C473.358 195.9 467.577 198.233 462.443 200.862C441.38 211.653 423.189 227.896 409.463 247.441C407.1 250.803 404.868 254.267 402.766 257.819C395.273 270.487 389.43 284.308 385.337 298.717C382.913 307.256 382.22 316.839 378.021 323.903C375.433 328.256 371.514 331.593 365.112 333.215C359.472 334.643 353.656 333.984 347.862 334.406C327.753 335.84 308.694 352.756 305.695 373.07M793.692 -286.343C786.87 -238.933 775.806 -191.092 756.69 -146.276C750.004 -130.529 741.867 -115.661 732.232 -101.639C720.657 -84.9092 705.83 -71.076 690.441 -57.6728C679.933 -48.5151 669.161 -39.559 658.978 -30.0166C638.868 -11.1748 621.072 10.1621 606.301 32.7296C597.664 45.9255 590.114 59.5617 583.698 73.4376C579.181 83.2092 574.813 93.6469 570.204 104.14C563.667 118.897 556.571 133.75 547.819 147.462C544.702 152.38 541.377 157.142 537.787 161.654C522.845 180.35 495.592 188.543 473.087 197.819C467.068 200.299 461.387 202.854 456.346 205.702C435.724 217.352 418.102 234.28 404.979 254.39C402.719 257.848 400.59 261.406 398.589 265.049C391.452 278.045 385.918 292.164 381.916 306.824C379.545 315.514 378.79 325.203 374.555 332.441C371.943 336.905 368.011 340.35 361.668 342.159C356.041 343.765 350.229 343.37 344.42 343.997C324.275 346.129 305.002 363.115 301.572 383.625M793.019 -284.454C787.123 -237.43 776.56 -189.706 757.578 -145.114C750.772 -129.034 742.318 -114.04 732.651 -99.6437C721.139 -82.5038 706.305 -68.2498 690.861 -54.4568C680.313 -45.0333 669.461 -35.8339 659.137 -26.1116C638.75 -6.91688 620.434 14.5256 604.917 36.9388C595.844 50.0432 587.797 63.5105 580.806 77.1445C575.874 86.7662 571.062 96.9909 566.022 107.262C558.861 121.71 551.142 136.226 541.906 149.836C538.625 154.713 535.157 159.461 531.448 163.987C515.968 182.777 488.888 191.824 466.7 201.985C460.777 204.697 455.2 207.483 450.253 210.549C430.074 223.056 413.019 240.67 400.497 261.345C398.339 264.899 396.313 268.551 394.413 272.286C387.631 285.61 382.406 300.029 378.494 314.937C376.176 323.78 375.357 333.572 371.087 340.985C368.452 345.561 364.505 349.114 358.226 351.109C352.61 352.896 346.803 352.766 340.981 353.597C320.8 356.427 301.314 373.485 297.453 394.187M792.346 -282.569C787.378 -235.928 777.316 -188.321 758.462 -143.956C751.535 -127.544 742.745 -112.437 733.067 -97.6515C721.592 -80.1196 706.777 -65.4251 691.276 -51.2452C680.688 -41.553 669.757 -32.1133 659.29 -22.2111C638.627 -2.66482 619.788 18.8819 603.527 41.1423C594.019 54.1579 585.473 67.4522 577.909 80.8456C572.561 90.3145 567.33 100.343 561.834 110.378C554.081 124.536 545.676 138.668 535.988 152.201C532.532 157.029 528.932 161.77 525.102 166.313C509.084 185.199 482.177 195.095 460.307 206.145C454.481 209.087 449.007 212.107 444.153 215.391C424.415 228.75 407.93 247.056 396.009 268.298C393.956 271.948 392.032 275.692 390.23 279.521C383.805 293.174 378.888 307.893 375.066 323.049C372.801 332.045 371.919 341.944 367.613 349.53C364.955 354.217 360.993 357.878 354.778 360.06C349.173 362.026 343.373 362.161 337.535 363.197C317.321 366.723 297.621 383.853 293.327 404.75M791.673 -280.681C787.631 -234.425 778.071 -186.935 759.348 -142.795C752.302 -126.051 743.171 -110.833 733.486 -95.6564C722.048 -77.7326 707.25 -62.5989 691.694 -48.0306C681.064 -38.0712 670.055 -28.3884 659.448 -18.3076C638.507 1.59163 619.148 23.2439 602.14 45.3486C592.196 58.2726 583.15 71.3982 575.014 84.5497C569.25 93.8673 563.578 103.687 557.649 113.495C549.275 127.35 540.24 141.133 530.072 154.568C526.452 159.353 522.711 164.085 518.76 168.641C502.205 187.621 475.472 198.366 453.917 210.305C448.188 213.478 442.818 216.727 438.057 220.235C418.762 234.443 402.844 253.443 391.523 275.25C389.573 278.996 387.753 282.835 386.051 286.754C379.981 300.735 375.373 315.751 371.641 331.16C369.429 340.308 368.484 350.312 364.142 358.072C361.462 362.869 357.483 366.644 351.332 369.009C345.737 371.157 339.942 371.553 334.092 372.792C313.842 377.017 293.926 394.217 289.205 415.309M790.999 -278.795C787.881 -232.922 778.823 -185.55 760.231 -141.635C753.064 -124.559 743.593 -109.231 733.9 -93.6627C722.498 -75.3484 707.72 -59.7728 692.107 -44.8176C681.438 -34.5896 670.35 -24.6663 659.6 -14.4056C638.382 5.84521 618.499 27.603 600.748 49.5535C590.371 62.3873 580.823 75.3426 572.114 88.2536C565.931 97.4212 559.82 107.033 553.459 116.615C544.462 130.165 534.8 143.6 524.152 156.937C520.368 161.679 516.483 166.4 512.413 170.972C495.318 190.047 468.761 201.636 447.523 214.466C441.89 217.869 436.624 221.35 431.955 225.079C413.102 240.133 397.752 259.831 387.034 282.204C385.186 286.045 383.471 289.98 381.868 293.989C376.153 308.298 371.854 323.614 368.211 339.271C366.052 348.571 365.044 358.683 360.667 366.615C357.963 371.522 353.97 375.413 347.881 377.956C342.296 380.289 336.508 380.945 330.644 382.389C310.359 387.309 290.231 404.582 285.075 425.868M790.326 -276.909C788.136 -231.42 779.579 -184.165 761.119 -140.476C753.831 -123.067 744.019 -107.63 734.32 -91.669C722.952 -72.9656 708.195 -56.9466 692.528 -41.6031C681.819 -31.1093 670.652 -20.9428 659.759 -10.5008C638.264 10.103 617.859 31.9648 599.364 53.7626C588.55 66.5062 578.499 79.2899 569.221 91.9605C562.619 100.977 556.071 110.379 549.278 119.735C539.659 132.981 529.37 146.068 518.24 159.308C514.289 164.007 510.264 168.715 506.074 173.302C488.442 192.472 462.058 204.904 441.136 218.629C435.598 222.261 430.437 225.973 425.861 229.923C407.447 245.819 392.669 266.218 382.554 289.157C380.811 293.094 379.198 297.121 377.693 301.225C372.334 315.861 368.343 331.476 364.792 347.384C362.686 356.837 361.614 367.052 357.202 375.159C354.474 380.178 350.466 384.186 344.441 386.906C338.867 389.425 333.084 390.339 327.207 391.989C306.887 397.606 286.545 414.952 280.96 436.43M789.653 -275.021C788.389 -229.917 780.334 -182.779 762.003 -139.315C754.595 -121.573 744.443 -106.027 734.735 -89.6725C723.401 -70.58 708.665 -54.1177 692.942 -38.3872C682.192 -27.6248 670.944 -17.2178 659.912 -6.59724C638.141 14.358 617.214 36.3268 597.973 57.9675C586.725 70.6209 576.171 83.233 566.324 95.6645C559.302 104.529 552.315 113.725 545.089 122.854C534.847 135.795 523.933 148.535 512.32 161.677C508.206 166.333 504.037 171.03 499.727 175.633C481.556 194.898 455.345 208.172 434.742 222.793C429.301 226.653 424.242 230.597 419.76 234.77C401.785 251.505 387.579 272.608 378.063 296.112C376.422 300.145 374.913 304.266 373.51 308.462C368.506 323.426 364.826 339.341 361.362 355.499C359.311 365.102 358.174 375.426 353.727 383.705C350.976 388.835 346.953 392.96 340.991 395.86C335.426 398.565 329.651 399.737 323.758 401.59C303.403 407.904 282.845 425.322 276.829 446.994M788.98 -273.136C788.642 -228.417 781.089 -181.394 762.889 -138.157C755.361 -120.082 744.868 -104.427 735.154 -87.68C723.853 -68.197 709.141 -51.2941 693.358 -35.174C682.568 -24.1444 671.242 -13.4956 660.067 -2.69372C638.019 18.6145 616.569 40.6875 596.584 62.1754C584.899 74.7386 573.841 87.1776 563.428 99.37C555.985 108.082 548.561 117.072 540.903 125.975C530.036 138.611 518.499 151.004 506.406 164.049C502.127 168.662 497.815 173.347 493.386 177.965C474.678 197.325 448.64 211.438 428.354 226.957C423.009 231.046 418.053 235.22 413.664 239.616C396.126 257.187 382.493 278.998 373.579 303.069C372.042 307.199 370.635 311.413 369.333 315.7C364.684 330.992 361.312 347.206 357.94 363.612C355.941 373.368 354.742 383.797 350.259 392.25C347.485 397.491 343.448 401.734 337.549 404.81C331.995 407.703 326.228 409.143 320.318 411.19C299.943 418.245 279.157 435.69 272.709 457.558M788.306 -271.249C788.893 -226.912 781.841 -180.008 763.774 -136.998C756.124 -118.591 745.289 -102.827 735.57 -85.6879C724.302 -65.8172 709.612 -48.4695 693.774 -31.9624C682.943 -20.6641 671.539 -9.77505 660.22 1.20679C637.895 22.8666 615.922 45.0451 595.194 66.3788C583.075 78.8518 571.509 91.1192 560.53 103.071C552.667 111.63 544.804 120.413 536.716 129.09C525.224 141.419 513.065 153.468 500.487 166.414C496.045 170.986 491.591 175.656 487.04 180.291C467.794 199.746 441.926 214.697 421.96 231.115C416.71 235.431 411.857 239.836 407.563 244.459C390.461 262.863 377.403 285.385 369.089 310.02C367.656 314.244 366.355 318.554 365.15 322.932C360.856 338.552 357.793 355.066 354.512 371.722C352.566 381.63 351.302 392.164 346.786 400.792C343.989 406.143 339.938 410.508 334.099 413.756C328.557 416.841 322.796 418.534 316.87 420.784C296.462 428.536 275.46 446.054 268.583 468.115M787.633 -269.361C789.147 -225.409 782.597 -178.62 764.66 -135.835C756.891 -117.096 745.713 -101.223 735.989 -83.69C724.753 -63.4315 710.085 -45.6404 694.191 -28.745C683.321 -17.1809 671.838 -6.04863 660.378 5.11315C637.776 27.1259 615.282 49.41 593.809 70.5895C581.253 82.9722 569.182 95.0665 557.635 106.781C549.351 115.187 541.05 123.762 532.531 132.214C520.413 144.238 507.632 155.942 494.572 168.787C489.965 173.316 485.367 177.976 480.7 182.626C460.916 202.175 435.218 217.962 415.574 235.282C410.42 239.825 405.669 244.461 401.471 249.307C384.802 268.543 372.321 291.777 364.61 316.978C363.28 321.299 362.081 325.703 360.976 330.173C357.039 346.122 354.283 362.933 351.092 379.84C349.2 389.901 347.874 400.541 343.32 409.342C340.5 414.803 336.434 419.292 330.659 422.713C325.129 425.989 319.372 427.936 313.432 430.391C292.991 438.841 271.773 456.428 264.463 478.684M786.96 -267.476C789.399 -223.909 783.266 -177.272 765.546 -134.678C757.618 -115.623 746.133 -99.6251 736.406 -81.699C725.201 -61.0529 710.558 -42.8171 694.609 -25.5333C683.699 -13.7006 672.135 -2.32649 660.534 9.01382C637.655 31.3781 614.639 53.7663 592.42 74.7915C579.43 87.0841 566.849 99.0026 554.739 110.481C546.032 118.733 537.292 127.1 528.346 135.328C515.602 147.048 502.201 158.404 488.656 171.152C483.887 175.639 479.144 180.286 474.357 184.952C454.034 204.597 428.506 221.218 409.183 239.441C404.125 244.21 399.476 249.076 395.372 254.148C379.135 274.214 367.233 298.161 360.123 323.927C358.895 328.343 357.8 332.841 356.796 337.403C353.214 353.68 350.767 370.79 347.666 387.946C345.826 398.159 344.436 408.906 339.848 417.88C337.004 423.452 332.927 428.064 327.212 431.657C321.695 435.125 315.943 437.324 309.99 439.982C289.516 449.13 268.081 466.789 260.342 489.238M786.286 -265.589C789.653 -222.406 784.019 -175.887 766.429 -133.518C758.38 -114.13 746.553 -98.0257 736.821 -79.7053C725.646 -58.6715 711.028 -39.9909 695.023 -22.3202C684.071 -10.2203 672.431 1.39567 660.687 12.9173C637.529 35.6332 613.994 58.1283 591.029 78.9993C577.602 91.2017 564.513 102.946 551.84 114.186C542.708 122.284 533.534 130.446 524.156 138.448C510.785 149.861 496.766 160.875 482.735 173.522C477.802 177.969 472.918 182.602 468.01 187.283C447.149 207.022 421.789 224.477 402.788 243.603C397.824 248.601 393.279 253.697 389.269 258.994C373.459 279.888 362.141 304.549 355.632 330.882C354.508 335.393 353.516 339.985 352.612 344.64C349.386 361.244 347.248 378.656 344.236 396.061C342.448 406.425 340.996 417.277 336.373 426.426C333.506 432.109 329.416 436.846 323.763 440.609C318.258 444.272 312.511 446.717 306.542 449.582C286.034 459.426 264.386 477.158 256.213 499.801M785.615 -263.703C789.906 -220.903 784.777 -174.501 767.316 -132.359C759.146 -112.64 746.975 -96.4266 737.241 -77.7117C726.096 -56.2902 711.504 -37.1648 695.442 -19.1072C684.45 -6.73865 672.731 5.11763 660.845 16.8178C637.411 39.8852 613.352 62.4859 589.643 83.2041C575.782 95.3163 562.183 106.884 548.947 117.889C539.393 125.832 529.78 133.787 519.972 141.565C505.974 152.669 491.336 163.343 476.82 175.888C471.725 180.294 466.697 184.914 461.669 189.609C440.27 209.444 415.077 227.73 396.4 247.762C391.529 252.984 387.087 258.311 383.175 263.836C367.792 285.556 357.056 310.936 351.149 337.835C350.129 342.443 349.241 347.129 348.436 351.874C345.565 368.806 343.737 386.516 340.815 404.172C339.08 414.688 337.566 425.646 332.907 434.969C330.016 440.763 325.915 445.627 320.321 449.559C314.83 453.416 309.085 456.112 303.102 459.182C282.56 469.722 260.696 487.526 252.094 510.363M784.941 -261.816C790.157 -219.401 785.614 -173.081 768.2 -131.199C759.948 -111.129 747.393 -94.8257 737.655 -75.7179C726.541 -53.9087 711.975 -34.3399 695.856 -15.894C684.824 -3.2596 673.025 8.83851 660.997 20.7214C637.286 44.1418 612.705 66.8465 588.252 87.4091C573.955 99.4311 559.847 110.822 546.046 121.593C536.067 129.38 526.019 137.13 515.783 144.684C501.158 155.481 485.901 165.813 470.901 178.258C465.642 182.621 460.469 187.229 455.322 191.939C433.386 211.869 408.358 230.987 390.006 251.926C385.231 257.375 380.889 262.933 377.074 268.681C362.117 291.228 351.966 317.325 346.66 344.789C345.744 349.491 344.958 354.273 344.252 359.111C341.737 376.371 340.216 394.38 337.385 412.285C335.703 422.954 334.125 434.018 329.432 443.512C326.518 449.415 322.406 454.409 316.87 458.506C311.394 462.559 305.645 465.492 299.654 468.779C279.055 479.975 257 497.891 247.965 520.923M784.266 -259.929C790.411 -217.898 786.369 -171.694 769.086 -130.038C760.715 -109.638 747.816 -93.2262 738.074 -73.7226C726.988 -51.5272 712.448 -31.5136 696.275 -12.6779C685.204 0.225084 673.324 12.565 661.154 24.6264C637.167 48.3983 612.064 71.2101 586.865 91.6185C572.133 103.55 557.514 114.764 543.152 125.3C532.749 132.931 522.263 140.472 511.598 147.806C496.345 158.293 480.47 168.285 464.985 180.628C459.564 184.95 454.248 189.544 448.98 194.27C426.505 214.295 401.641 234.242 383.617 256.087C378.935 261.763 374.696 267.549 370.978 273.525C356.443 296.898 346.881 323.712 342.176 351.743C341.363 356.542 340.681 361.415 340.074 366.345C337.913 383.933 336.703 402.24 333.961 420.397C332.332 431.218 330.69 442.386 325.963 452.055C323.025 458.07 318.904 463.191 313.427 467.455C307.967 471.704 302.217 474.885 296.212 478.376C275.579 490.269 253.308 508.258 243.843 531.484M783.595 -258.043C790.665 -216.396 787.125 -170.309 769.973 -128.879C761.482 -108.145 748.237 -91.6282 738.493 -71.7302C727.436 -49.1485 712.923 -28.6888 696.694 -9.46619C685.58 3.70401 673.623 16.2857 661.313 28.5271C637.047 52.652 611.422 75.5679 585.481 95.8221C570.312 107.664 555.185 118.697 540.26 129.001C529.432 136.475 518.51 143.812 507.416 150.92C491.534 161.099 475.044 170.752 459.074 182.995C453.488 187.276 448.029 191.856 442.641 196.598C419.627 216.719 394.926 237.495 377.23 260.247C372.641 266.147 368.503 272.165 364.884 278.368C350.767 302.563 341.798 330.098 337.693 358.693C336.983 363.588 336.405 368.555 335.898 373.576C334.093 391.492 333.192 410.1 330.54 428.503C328.964 439.476 327.259 450.751 322.496 460.593C319.536 466.719 315.408 471.969 309.984 476.4C304.543 480.847 298.792 484.274 292.773 487.97C272.103 500.56 249.62 518.62 239.724 542.041M782.921 -256.156C790.917 -214.894 787.878 -168.925 770.856 -127.719C762.244 -106.653 748.652 -90.0276 738.908 -69.7339C727.879 -46.7659 713.393 -25.8599 697.107 -6.25038C685.954 7.18844 673.918 20.0105 661.464 32.4318C636.922 56.9083 610.775 79.9311 584.086 100.03C568.484 111.781 552.844 122.636 537.358 132.706C526.106 140.022 514.746 147.154 503.225 154.041C486.715 163.91 469.608 173.225 453.152 185.365C447.404 189.604 441.8 194.172 436.294 198.928C412.743 219.143 388.202 240.75 370.836 264.411C366.34 270.537 362.304 276.783 358.782 283.215C345.083 308.235 336.705 336.489 333.204 365.649C332.599 370.64 332.122 375.703 331.715 380.814C330.267 399.059 329.673 417.965 327.112 436.619C325.589 447.744 323.822 459.125 319.024 469.142C316.04 475.379 311.904 480.758 306.538 485.355C301.112 490.001 295.361 493.672 289.329 497.574C268.625 510.86 245.927 528.994 235.599 552.607M782.248 -254.271C791.17 -213.391 788.632 -167.538 771.742 -126.562C763.01 -105.162 749.071 -88.4312 739.325 -67.7431C728.324 -44.3874 713.865 -23.0367 697.524 -3.04021C686.329 10.6658 674.216 23.7298 661.621 36.331C636.801 61.1604 610.132 84.2874 582.701 104.232C566.662 115.893 550.513 126.568 534.465 136.406C522.788 143.565 510.992 150.49 499.041 157.156C481.902 166.714 464.179 175.692 447.237 187.73C441.326 191.93 435.578 196.482 429.951 201.254C405.861 221.565 381.48 244.001 364.445 268.57C360.042 274.92 356.107 281.398 352.686 288.056C339.404 313.901 331.62 342.874 328.718 372.599C328.215 377.685 327.844 382.841 327.536 388.047C326.441 406.621 326.158 425.824 323.687 444.729C322.218 456.006 320.384 467.492 315.553 477.683C312.546 484.032 308.404 489.542 303.091 494.301C297.685 499.147 291.932 503.063 285.884 507.168C265.145 521.152 242.234 539.356 231.475 563.164M781.575 -252.383C791.423 -211.888 789.386 -166.152 772.628 -125.399C763.774 -103.667 749.489 -86.8304 739.744 -65.7451C728.77 -42.0046 714.34 -20.2062 697.943 0.178598C686.71 14.1519 674.515 27.4589 661.778 40.2387C636.682 65.4196 609.489 88.6522 581.314 108.444C564.841 120.015 548.179 130.508 531.568 140.117C519.468 147.117 507.235 153.837 494.855 160.28C477.089 169.526 458.748 178.17 441.32 190.104C435.246 194.263 429.354 198.802 423.608 203.589C398.98 223.994 374.757 247.26 358.054 272.737C353.743 279.313 349.908 286.022 346.587 292.905C333.718 319.574 326.532 349.266 324.231 379.559C323.832 384.742 323.564 389.991 323.356 395.288C322.617 414.19 322.642 433.692 320.26 452.846C318.845 464.275 316.949 475.867 312.081 486.232C309.051 492.689 304.903 498.332 299.644 503.257C294.258 508.301 288.499 512.462 282.44 516.772C261.666 531.454 238.541 549.73 227.35 573.731M780.901 -250.496C791.675 -210.386 790.141 -164.766 773.513 -124.24C764.54 -102.177 749.907 -85.2325 740.16 -63.7529C729.211 -39.6261 714.812 -17.3829 698.358 3.39024C687.083 17.6307 674.81 31.1782 661.932 44.1407C636.558 69.6746 608.846 93.0113 579.924 112.647C563.014 124.128 545.842 134.44 528.671 143.818C516.145 150.659 503.475 157.175 490.668 163.397C472.273 172.333 453.318 180.641 435.403 192.471C429.167 196.59 423.13 201.115 417.265 205.918C392.098 226.419 368.032 250.511 351.664 276.897C347.445 283.698 343.711 290.636 340.489 297.748C328.033 325.241 321.445 355.652 319.747 386.51C319.452 391.788 319.285 397.132 319.179 402.52C318.795 421.75 319.128 441.552 316.838 460.956C315.475 472.538 313.515 484.237 308.613 494.774C305.559 501.342 301.408 507.116 296.201 512.204C290.836 517.449 285.074 521.854 278.999 526.368C258.191 541.746 234.849 560.094 223.23 584.289M780.228 -248.611C791.929 -208.884 790.895 -163.382 774.397 -123.081C765.304 -100.686 750.281 -83.6544 740.576 -61.7605C729.608 -37.2687 715.283 -14.5595 698.773 6.60199C687.459 21.1111 675.107 34.899 662.086 48.04C636.436 73.9255 608.201 97.3677 578.534 116.851C561.19 128.241 543.507 138.37 525.773 147.52C512.823 154.2 499.716 160.512 486.481 166.512C467.459 175.135 447.91 183.145 429.484 194.836C423.092 198.926 416.906 203.425 410.92 208.243C385.217 228.838 361.306 253.76 345.273 281.055C341.145 288.082 337.514 295.251 334.391 302.589C322.347 330.907 316.356 362.038 315.259 393.46C315.066 398.833 315.006 404.272 314.996 409.753C314.968 429.31 315.612 449.412 313.41 469.066C312.1 480.8 310.077 492.603 305.139 503.316C302.063 509.995 297.907 515.9 292.753 521.152C287.409 526.598 281.643 531.246 275.554 535.965C254.71 552.041 231.156 570.46 219.105 594.85M779.555 -246.723C792.181 -207.38 791.65 -161.996 775.283 -121.921C766.07 -99.1919 750.703 -82.0522 740.995 -59.7653C730.057 -34.8859 715.757 -11.7318 699.191 9.8166C687.835 24.5929 675.406 38.6226 662.243 51.945C636.316 78.1834 607.56 101.731 577.148 121.059C559.367 132.359 541.176 142.305 522.88 151.225C509.504 157.746 495.951 163.828 482.296 169.632C462.633 177.908 442.477 185.616 423.57 197.205C417.016 201.253 410.684 205.74 404.578 210.574C378.336 231.264 354.582 257.014 338.883 285.218C334.847 292.47 331.315 299.87 328.296 307.434C316.662 336.576 311.272 368.426 310.777 400.415C310.687 405.886 310.73 411.417 310.82 416.99C311.147 436.875 312.099 457.276 309.987 477.179C308.731 489.066 306.645 500.974 301.671 511.861C298.571 518.651 294.412 524.687 289.308 530.102C283.987 535.749 278.214 540.64 272.112 545.565C251.234 562.337 227.464 580.828 214.981 605.413M778.882 -244.838C792.434 -205.88 792.405 -160.611 776.171 -120.762C766.836 -97.7012 751.126 -80.453 741.414 -57.7731C730.507 -32.5046 716.231 -8.90709 699.61 13.0296C688.216 28.0732 675.705 42.3461 662.4 55.847C636.195 82.4383 606.917 106.09 575.761 125.265C557.546 136.475 538.842 146.237 519.984 154.93C506.184 161.29 492.196 167.17 478.11 172.753C457.82 180.72 437.045 188.088 417.653 199.577C410.934 203.584 404.46 208.057 398.235 212.906C371.455 233.69 347.853 260.27 332.492 289.382C328.547 296.859 325.115 304.49 322.197 312.281C310.971 342.249 306.184 374.816 306.289 407.37C306.303 412.935 306.447 418.562 306.639 424.226C307.321 444.44 308.582 465.14 306.562 485.292C305.359 497.331 303.21 509.346 298.201 520.405C295.077 527.307 290.915 533.475 285.863 539.053C280.567 544.901 274.786 550.035 268.668 555.163C247.755 572.634 223.772 591.195 210.859 615.974M778.208 -242.951C792.687 -204.377 793.158 -159.227 777.054 -119.602C767.599 -96.2076 751.543 -78.8522 741.829 -55.778C730.953 -30.1218 716.702 -6.07957 700.025 16.2441C688.591 31.5562 676.001 46.0695 662.555 59.7503C636.074 86.6933 606.272 110.451 574.372 129.47C555.721 140.59 536.509 150.169 517.087 158.633C502.863 164.833 488.441 170.512 473.925 175.869C453.009 183.527 431.612 190.556 411.739 201.943C404.857 205.909 398.238 210.369 391.893 215.233C364.575 236.114 341.127 263.522 326.104 293.54C322.249 301.244 318.918 309.104 316.101 317.122C305.281 347.914 301.098 381.2 301.805 414.321C301.922 419.983 302.171 425.702 302.462 431.459C303.501 452.001 305.069 472.999 303.14 493.402C301.989 505.593 299.776 517.712 294.733 528.947C291.586 535.957 287.424 542.26 282.421 548C277.148 554.05 271.359 559.426 265.228 564.76C244.28 582.928 220.083 601.562 206.737 626.533M777.535 -241.063C792.94 -202.874 793.914 -157.839 777.94 -118.442C768.363 -94.7153 751.964 -77.2515 742.247 -53.7843C731.4 -27.7404 717.175 -3.25342 700.441 19.4586C688.965 35.0379 676.298 49.7931 662.709 63.6552C635.949 90.9497 605.628 114.814 572.983 133.679C553.897 144.709 534.16 154.072 514.191 162.341C499.534 168.356 484.686 173.857 469.737 178.992C448.196 186.342 426.178 193.028 405.82 204.316C398.775 208.242 392.013 212.687 385.549 217.567C357.693 238.541 334.341 266.753 319.712 297.707C315.934 305.629 312.718 313.727 310.002 321.972C299.589 353.591 296.009 387.595 297.318 421.278C297.538 427.036 297.891 432.85 298.281 438.698C299.675 459.569 301.552 480.866 299.712 501.518C298.613 513.86 296.338 526.087 291.259 537.494C288.089 544.616 283.926 551.05 278.972 556.955C273.726 563.207 267.927 568.825 261.782 574.364C240.799 593.229 216.387 611.933 202.612 637.1M776.862 -239.178C793.192 -201.372 794.667 -156.454 778.824 -117.283C769.13 -93.2243 752.385 -75.6507 742.664 -51.7905C731.848 -25.3589 717.647 -0.428546 700.857 22.6718C689.342 38.5198 676.596 53.5153 662.863 67.5574C635.827 95.2034 604.982 119.173 571.593 137.885C552.072 148.823 531.829 158.009 511.294 166.045C496.214 171.903 480.929 177.198 465.552 182.11C443.386 189.151 420.745 195.499 399.903 206.685C392.694 210.568 385.789 215.002 379.206 219.896C350.811 240.966 327.622 270.013 313.321 301.869C309.637 310.018 306.502 318.34 303.905 326.814C293.832 359.241 290.923 393.98 292.833 428.231C293.158 434.084 293.612 439.993 294.101 445.931C295.85 467.129 298.038 488.726 296.287 509.628C295.241 522.123 292.904 534.455 287.788 546.036C284.595 553.269 280.432 559.836 275.526 565.901C270.306 572.354 264.496 578.215 258.338 583.957C237.32 603.52 212.695 622.296 198.489 647.657M776.188 -237.291C793.445 -199.868 795.42 -155.069 779.709 -116.124C769.893 -91.7333 752.805 -74.0511 743.079 -49.7966C732.294 -22.9759 718.118 2.39643 701.271 25.8851C689.715 41.9989 676.888 57.2376 663.017 71.4596C635.704 99.4586 604.337 123.533 570.203 142.089C550.247 152.938 529.497 161.945 508.396 169.747C492.896 175.449 477.172 180.54 461.363 185.226C438.572 191.959 415.311 197.966 393.985 209.05C386.611 212.892 379.563 217.313 372.86 222.222C343.928 243.387 320.901 273.271 306.928 306.027C303.336 314.404 300.302 322.958 297.804 331.657C288.156 364.918 285.832 400.365 288.343 435.182C288.771 441.131 289.33 447.133 289.918 453.164C292.023 474.69 294.519 496.586 292.859 517.739C291.866 530.385 289.464 542.823 284.315 554.578C281.099 561.922 276.937 568.62 272.078 574.849C266.886 581.504 261.066 587.607 254.893 593.554C233.84 613.812 209.002 632.661 194.363 658.215M775.516 -235.405C793.699 -198.367 796.177 -153.683 780.596 -114.962C770.66 -90.2384 753.227 -72.4492 743.498 -47.8017C732.743 -20.5933 718.593 5.22384 701.69 29.1008C690.095 45.4832 677.189 60.9624 663.174 75.3643C635.584 103.715 603.697 127.894 568.816 146.298C548.424 157.056 527.167 165.887 505.5 173.455C489.577 179 473.416 183.885 457.176 188.349C433.76 194.773 409.875 200.44 388.066 211.423C380.53 215.223 373.34 219.631 366.515 224.555C337.045 245.816 314.182 276.536 300.536 310.194C297.039 318.798 294.108 327.583 291.705 336.506C282.48 370.603 280.744 406.757 283.856 442.142C284.386 448.186 285.049 454.282 285.738 460.405C288.198 482.258 291.002 504.454 289.432 525.856C288.492 538.655 286.028 551.198 280.843 563.127C277.603 570.582 273.456 577.421 268.63 583.804C263.478 590.672 257.633 597.006 251.448 603.159C230.359 624.115 205.307 643.036 190.238 668.784M774.842 -233.518C793.951 -196.865 796.93 -152.298 781.481 -113.803C771.423 -88.7475 753.648 -70.8512 743.915 -45.8079C733.19 -18.2119 719.066 8.05008 702.107 32.314C667.564 81.738 621.15 122.984 567.427 150.503C531.29 169.014 492.34 181.455 452.991 191.465C428.949 197.581 404.443 202.906 382.151 213.788C341.169 233.794 310.549 271.798 294.147 314.351C277.745 356.904 274.684 403.726 279.372 449.09C283.625 490.257 293.765 533.664 277.375 571.666C258.629 615.126 210.393 638.708 186.117 679.338M884.746 8.86706C850.066 -27.1119 802.453 -50.356 752.755 -55.5668C738.616 -57.0489 723.781 -57.0098 710.867 -51.0644C673.555 -33.8834 665.41 16.7172 654.32 51.8007C640.936 94.1374 628.568 136.876 611.753 178.028C602.314 201.131 588.975 225.974 565.134 233.354C540.991 240.826 515.978 227.564 492.88 217.306C465.967 205.352 436.848 196.975 407.426 198.235C378.004 199.494 348.192 211.333 329.563 234.142C314.975 252.003 308.229 274.94 303.708 297.555C291.834 356.977 293.068 418.981 307.299 477.885M884.126 6.44772C853.476 -25.3515 812.1 -45.2912 766.47 -52.4246C762.232 -53.0873 757.981 -53.6568 753.713 -54.08C739.689 -55.465 725.011 -55.3952 712.206 -49.6092C675.162 -32.8871 666.353 16.1384 654.861 50.7488C644.674 81.4336 635.209 112.564 623.985 143.352C620.105 154.048 616.035 164.676 611.683 175.206C602.241 198.046 589.051 222.585 565.703 230.23C542.061 237.97 517.581 225.648 494.946 216.226C468.57 205.25 440.048 197.723 411.189 199.496C401.141 200.114 391.042 201.97 381.363 205.08C363.248 210.895 346.597 221.095 334.514 235.772C319.999 253.401 313.031 275.896 308.183 298.004C298.357 342.749 295.947 388.673 301.091 433.79C302.625 447.253 304.832 460.641 307.72 473.903M883.506 4.03132C853.878 -26.7082 813.59 -44.3599 767.309 -51.0391C763.109 -51.6443 758.899 -52.1939 754.673 -52.5889C740.763 -53.8739 726.243 -53.7762 713.544 -48.1495C676.764 -31.8865 667.297 15.5613 655.404 49.7013C644.957 79.6912 635.381 110.352 623.96 140.917C620.052 151.478 615.967 161.98 611.614 172.389C602.172 194.967 589.128 219.202 566.274 227.111C543.131 235.117 519.185 223.734 497.016 215.148C471.179 205.148 443.249 198.476 414.956 200.763C405.104 201.56 395.197 203.552 385.691 206.751C367.902 212.726 351.493 222.922 339.47 237.405C325.03 254.804 317.84 276.854 312.663 298.454C302.154 342.179 298.706 386.729 302.64 430.729C303.813 443.858 305.642 456.935 308.147 469.922M882.886 1.6123C854.279 -28.0661 815.087 -43.4381 768.149 -49.6561C763.984 -50.2081 759.817 -50.7364 755.634 -51.1018C741.84 -52.2896 727.476 -52.1585 714.886 -46.6939C678.373 -30.8898 668.251 14.9775 655.949 48.6499C645.247 77.9421 635.486 108.108 623.94 138.479C619.98 148.896 615.903 159.281 611.548 169.569C602.104 191.883 589.208 215.816 566.849 223.987C544.206 232.26 520.795 221.818 499.088 214.068C473.789 205.046 446.455 199.224 418.726 202.023C409.069 203.002 399.354 205.128 390.02 208.415C372.556 214.552 356.391 224.74 344.429 239.035C330.063 256.203 322.651 277.807 317.144 298.9C305.952 341.607 301.467 384.781 304.191 427.665C305.004 440.462 306.456 453.226 308.579 465.939M882.266 -0.804164C854.681 -29.4229 816.588 -42.5234 768.987 -48.2692C764.859 -48.7665 760.733 -49.2736 756.592 -49.6094C742.912 -50.6973 728.706 -50.5383 716.223 -45.2344C679.978 -29.8893 669.207 14.3976 656.49 47.6037C645.539 76.1983 635.635 105.889 623.914 136.045C619.919 146.326 615.834 156.585 611.478 166.753C602.033 188.806 589.286 212.435 567.418 220.869C545.276 229.409 522.399 219.907 501.154 212.994C476.393 204.948 449.654 199.977 422.488 203.291C413.027 204.449 403.505 206.71 394.342 210.086C377.206 216.384 361.283 226.567 349.378 240.669C335.084 257.606 327.452 278.767 321.616 299.352C309.742 341.038 304.22 382.839 305.731 424.607C306.181 437.071 307.257 449.523 308.997 461.961M881.645 -3.22167C855.082 -30.7807 818.093 -41.6168 769.825 -46.8848C765.734 -47.3302 761.65 -47.8119 757.552 -48.1208C743.987 -49.1115 729.937 -48.9205 717.563 -43.7759C681.585 -28.8897 670.169 13.814 657.033 46.5565C645.84 74.4551 635.79 103.668 623.892 133.61C619.862 143.754 615.769 153.889 611.412 163.937C601.966 185.725 589.366 209.052 567.992 217.75C546.349 226.557 524.009 217.994 503.225 211.918C479.001 204.847 452.858 200.73 426.257 204.559C416.992 205.897 407.662 208.293 398.671 211.757C381.86 218.216 366.178 228.393 354.337 242.304C340.117 259.011 332.264 279.728 326.098 299.805C313.544 340.472 306.982 380.898 307.284 421.551C307.373 433.682 308.072 445.822 309.427 457.984M881.025 -5.64097C855.484 -32.1403 819.602 -40.7244 770.663 -45.5036C766.611 -45.8985 762.566 -46.356 758.511 -46.6339C745.062 -47.5261 731.167 -47.3059 718.9 -42.3221C683.188 -27.8934 671.136 13.223 657.573 45.5033C646.145 72.7044 635.94 101.442 623.864 131.17C619.8 141.177 615.697 151.187 611.339 161.112C601.892 182.639 589.44 205.66 568.558 214.623C547.415 223.696 525.61 216.075 505.288 210.835C481.602 204.742 456.055 201.475 430.017 205.818C420.948 207.336 411.81 209.866 402.991 213.421C386.506 220.042 371.068 230.211 359.285 243.932C345.14 260.408 337.064 280.681 330.569 300.249C317.332 339.896 309.734 378.949 308.824 418.484C308.551 430.283 308.873 442.11 309.847 453.997M880.405 -8.05728C855.885 -33.4955 821.116 -39.8359 771.501 -44.1165C767.486 -44.4623 763.482 -44.893 759.47 -45.1426C746.135 -45.9363 732.397 -45.6854 720.239 -40.8609C684.794 -26.8926 672.111 12.6407 658.118 44.4573C646.46 70.961 636.099 99.2222 623.842 128.738C619.744 138.609 615.63 148.493 611.273 158.298C601.824 179.562 589.52 202.28 569.132 211.506C548.489 220.847 527.217 214.165 507.36 209.761C484.214 204.643 459.261 202.229 433.788 207.085C424.914 208.782 415.969 211.449 407.322 215.092C391.163 221.873 375.969 232.038 364.245 245.568C350.172 261.812 341.876 281.642 335.05 300.704C321.132 339.332 312.495 377.009 310.374 415.43C309.74 426.896 309.684 438.412 310.274 450.023M879.785 -10.4766C856.287 -34.8551 822.635 -38.963 772.34 -42.7339C768.364 -43.032 764.401 -43.4344 760.43 -43.6544C747.211 -44.3495 733.63 -44.068 721.58 -39.4042C686.401 -25.8949 673.094 12.0499 658.66 43.4069C646.782 69.2133 636.255 96.9992 623.819 126.299C619.687 136.032 615.563 145.793 611.204 155.478C601.755 176.48 589.598 198.893 569.704 208.385C549.56 217.993 528.823 212.251 509.429 208.683C486.82 204.543 462.463 202.982 437.554 208.35C428.876 210.227 420.124 213.028 411.647 216.76C395.815 223.703 380.862 233.86 369.198 247.201C355.201 263.214 346.682 282.599 339.527 301.155C324.927 338.763 315.253 375.067 311.921 412.371C310.925 423.504 310.491 434.706 310.701 446.045M879.163 -12.8943C856.687 -36.2131 824.153 -38.0982 773.178 -41.3496C769.241 -41.6 765.317 -41.9744 761.39 -42.1661C748.284 -42.7626 734.861 -42.4505 722.919 -37.9488C688.006 -24.897 674.082 11.4607 659.203 42.3568C647.111 67.4672 636.415 94.7778 623.796 123.862C619.631 133.461 615.496 143.096 611.137 152.66C601.686 173.398 589.676 195.508 570.276 205.264C550.632 215.138 530.43 210.338 511.498 207.606C489.427 204.443 465.666 203.733 441.321 209.616C432.839 211.673 424.278 214.61 415.974 218.43C400.466 225.534 385.757 235.687 374.154 248.833C360.229 264.614 351.489 283.556 344.005 301.604C328.724 338.192 318.011 373.121 313.47 409.31C312.113 420.11 311.301 431.001 311.128 442.063M878.545 -15.3118C857.091 -37.571 825.679 -37.243 774.016 -39.9653C770.118 -40.1707 766.234 -40.5154 762.347 -40.6775C749.357 -41.1755 736.09 -40.8341 724.255 -36.4904C689.61 -23.8976 675.075 10.8716 659.742 41.3081C647.442 65.7241 636.572 92.5566 623.767 121.426C619.57 130.889 615.424 140.399 611.064 149.841C601.612 170.317 589.751 192.123 570.843 202.144C551.698 212.284 532.032 208.425 513.562 206.529C492.03 204.342 468.863 204.484 445.081 210.881C436.795 213.117 428.424 216.189 420.293 220.098C405.112 227.363 390.646 237.509 379.102 250.467C365.251 266.018 356.29 284.514 348.476 302.054C332.513 337.622 320.761 371.177 315.009 406.251C313.291 416.717 312.102 427.297 311.545 438.084M877.924 -17.7298C857.491 -38.9292 827.203 -36.4007 774.854 -38.5813C770.994 -38.7418 767.15 -39.054 763.307 -39.1893C750.43 -39.5887 737.32 -39.2167 725.594 -35.035C691.217 -22.9012 676.08 10.2824 660.285 40.2577C647.786 63.9793 636.734 90.3336 623.745 118.989C619.517 128.315 615.358 137.7 610.998 147.021C601.545 167.234 589.832 188.738 571.418 199.02C552.774 209.428 533.641 206.506 515.635 205.45C494.64 204.239 472.07 205.234 448.852 212.143C440.762 214.559 432.584 217.765 424.625 221.765C409.77 229.19 395.546 239.33 384.062 252.097C370.285 267.418 361.101 285.47 352.96 302.503C336.316 337.052 323.524 369.231 316.561 403.189C314.481 413.323 312.916 423.59 311.977 434.101M877.304 -20.146C857.892 -40.2843 828.73 -35.5691 775.694 -37.1955C771.874 -37.3124 768.067 -37.6007 764.267 -37.698C751.507 -38.0239 738.554 -37.5962 726.935 -33.5753C692.823 -21.9018 677.091 9.69768 660.831 39.2104C648.14 62.242 636.901 88.1166 623.723 116.554C619.465 125.745 615.292 135.001 610.93 144.204C601.475 164.155 589.91 185.354 571.988 195.901C553.844 206.575 535.247 204.594 517.704 204.373C497.247 204.14 475.273 205.986 452.619 213.41C444.726 216.005 436.739 219.347 428.952 223.435C414.423 231.023 400.442 241.157 389.019 253.731C375.315 268.819 365.91 286.428 357.439 302.953C340.113 336.481 326.284 367.288 318.111 400.129C315.67 409.93 313.727 419.886 312.406 430.123M876.684 -22.5652C858.294 -41.6438 830.259 -34.7531 776.532 -35.8114C772.75 -35.8861 768.985 -36.1406 765.226 -36.2096C752.581 -36.4384 739.784 -35.9786 728.272 -32.1184C694.427 -20.9025 678.111 9.11281 661.371 38.1601C648.497 60.5016 637.062 85.8965 623.698 114.116C619.41 123.171 615.224 132.303 610.861 141.384C601.405 161.072 589.987 181.968 572.559 192.778C554.914 203.719 536.852 202.679 519.772 203.294C499.854 204.037 478.475 206.735 456.384 214.673C448.683 217.449 440.892 220.925 433.274 225.103C419.071 232.852 405.333 242.979 393.968 255.362C380.339 270.221 370.713 287.384 361.912 303.402C343.904 335.911 329.037 365.343 319.651 397.068C316.848 406.537 314.529 416.18 312.824 426.142M876.062 -24.983C858.695 -43.002 831.787 -33.9483 777.37 -34.4273C773.627 -34.4599 769.901 -34.6806 766.184 -34.72C753.654 -34.8516 741.014 -34.3612 729.611 -30.6603C696.033 -19.9033 679.138 8.53083 661.914 37.1126C648.863 58.7683 637.231 83.6778 623.673 111.681C619.355 120.6 615.155 129.607 610.792 138.567C601.335 157.992 590.065 178.584 573.13 189.659C555.985 200.867 538.457 200.767 521.84 202.218C502.459 203.938 481.675 207.489 460.149 215.94C452.645 218.896 445.045 222.508 437.599 226.774C423.722 234.683 410.226 244.804 398.922 256.998C385.367 271.626 375.518 288.346 366.388 303.858C347.698 335.346 331.793 363.404 321.198 394.014C318.034 403.15 315.337 412.482 313.25 422.167M875.444 -27.4008C859.098 -44.3601 833.319 -33.1573 778.209 -33.0444C774.506 -33.0363 770.819 -33.2232 767.145 -33.233C754.73 -33.2674 742.246 -32.745 730.95 -29.2049C697.64 -18.9068 680.178 7.94896 662.455 36.0609C649.235 57.0323 637.398 81.4579 623.648 109.244C619.3 118.029 615.087 126.908 610.723 135.747C601.265 154.909 590.142 175.198 573.7 186.536C557.055 198.011 540.061 198.851 523.908 201.139C505.066 203.836 484.876 208.239 463.915 217.202C456.607 220.338 449.199 224.084 441.926 228.441C428.374 236.511 415.121 246.628 403.879 258.629C390.397 273.024 380.327 289.3 370.867 304.305C351.496 334.774 334.553 361.458 322.747 390.951C319.219 399.753 316.146 408.772 313.676 418.184M874.822 -29.8184C859.497 -45.7166 834.848 -32.3802 779.046 -31.6588C775.382 -31.6113 771.733 -31.7616 768.102 -31.7417C755.802 -31.6762 743.482 -31.1022 732.288 -27.7451C699.264 -17.839 681.224 7.37704 662.997 35.0149C649.615 55.3076 637.568 79.2436 623.624 106.809C619.248 115.458 615.018 124.212 610.654 132.93C601.195 151.83 590.22 171.814 574.271 183.417C558.124 195.159 541.667 196.939 525.977 200.062C507.673 203.736 488.079 208.99 467.682 218.469C460.569 221.783 453.354 225.666 446.252 230.111C433.028 238.343 420.017 248.452 408.833 260.262C395.424 274.428 385.132 290.259 375.344 304.755C355.291 334.204 337.31 359.514 324.292 387.893C320.404 396.361 316.953 405.069 314.101 414.207M874.204 -32.236C859.901 -47.0745 836.379 -31.6157 779.887 -30.2745C776.261 -30.1877 772.653 -30.3 769.065 -30.2532C756.879 -30.0906 744.716 -29.486 733.632 -26.2882C700.873 -16.8424 682.282 6.80659 663.545 33.9648C650.011 53.5816 637.746 77.0266 623.606 104.373C619.203 112.888 614.957 121.515 610.591 130.113C601.13 148.75 590.303 168.431 574.849 180.299C559.203 192.309 543.281 195.027 528.052 198.987C510.286 203.639 491.288 209.744 471.453 219.736C464.537 223.231 457.513 227.249 450.583 231.782C437.685 240.174 424.917 250.278 413.793 261.899C400.457 275.833 389.946 291.221 379.827 305.21C359.093 333.64 340.072 357.576 325.845 384.836C321.595 392.973 317.769 401.367 314.533 410.23M873.582 -34.6538C860.3 -48.434 837.908 -30.8664 780.723 -28.8888C777.138 -28.764 773.568 -28.8398 770.022 -28.762C757.951 -28.4994 745.944 -27.8656 734.966 -24.8285C702.474 -15.8403 683.345 6.246 664.083 32.9175C650.402 51.8627 637.914 74.8138 623.577 101.937C619.148 110.318 614.883 118.817 610.518 127.295C601.057 145.669 590.379 165.046 575.416 177.178C560.269 189.455 544.882 193.114 530.115 197.91C512.887 203.536 494.484 210.494 475.213 221.001C468.493 224.676 461.662 228.828 454.903 233.45C442.329 242.004 429.804 252.102 418.74 263.531C405.478 277.234 394.745 292.177 384.297 305.658C362.881 333.068 342.821 355.63 327.386 381.776C322.774 389.579 318.57 397.661 314.951 406.249M872.962 -37.0729C860.702 -49.7935 839.434 -30.134 781.561 -27.5074C778.014 -27.3461 774.485 -27.3811 770.982 -27.2765C759.026 -26.9167 747.176 -26.2522 736.307 -23.3745C704.08 -14.8466 684.421 5.68532 664.627 31.8658C650.806 50.145 638.094 72.598 623.555 99.4988C619.099 107.746 614.817 116.118 610.451 124.474C600.988 142.585 590.457 161.659 575.988 174.054C561.34 186.597 546.487 191.196 532.184 196.83C515.494 203.433 497.687 211.243 478.982 222.263C472.457 226.117 465.818 230.405 459.232 235.117C446.984 243.832 434.702 253.923 423.699 265.161C410.512 278.634 399.556 293.133 388.779 306.106C366.682 332.496 345.583 353.683 328.935 378.713C323.963 386.183 319.382 393.954 315.379 402.267M872.342 -39.4893C861.103 -51.1487 840.961 -29.4156 782.401 -26.1219C778.893 -25.924 775.402 -25.9196 771.942 -25.7853C760.1 -25.3256 748.406 -24.6319 737.646 -21.9163C705.684 -13.8474 685.508 5.13729 665.168 30.8169C651.214 48.4344 638.271 70.3851 623.529 97.0625C619.046 105.176 614.749 113.419 610.38 121.655C600.917 139.504 590.532 158.275 576.558 170.932C562.412 183.743 548.093 189.281 534.252 195.751C518.099 203.332 500.887 211.994 482.746 223.526C476.417 227.56 469.971 231.983 463.556 236.784C451.636 245.66 439.596 255.745 428.65 266.792C415.537 280.032 404.36 294.088 393.254 306.555C370.475 331.924 348.338 351.738 330.48 375.651C325.145 382.789 320.187 390.247 315.803 398.283M871.721 -41.9073C861.504 -52.507 842.484 -28.7126 783.237 -24.7365C779.768 -24.5048 776.317 -24.4596 772.9 -24.2957C761.173 -23.736 749.632 -23.0354 738.984 -20.4568C707.273 -12.9111 686.602 4.60043 665.71 29.7707C651.629 46.7335 638.45 68.1749 623.506 94.629C618.997 102.61 614.682 110.725 610.313 118.839C600.847 136.425 590.612 154.891 577.13 167.814C563.483 180.891 549.699 187.371 536.322 194.675C520.709 203.232 504.091 212.746 486.514 224.794C480.382 229.008 474.126 233.566 467.884 238.455C456.288 247.493 444.492 257.57 433.607 268.428C420.566 281.439 409.168 295.05 397.732 307.009C374.271 331.36 351.096 349.798 332.028 372.596C326.333 379.4 320.996 386.546 316.23 394.31M871.102 -44.3249C861.907 -53.8649 844.006 -28.0261 784.078 -23.3521C780.647 -23.0838 777.237 -22.9979 773.861 -22.8058C762.249 -22.1462 750.864 -21.4163 740.324 -18.9998C708.88 -11.9144 687.709 4.07087 666.256 28.7206C652.055 45.0357 638.637 65.9635 623.484 92.1914C618.95 100.04 614.616 108.026 610.246 116.021C600.78 133.345 590.69 151.507 577.703 164.693C564.555 178.036 551.306 185.457 538.392 193.598C523.316 203.132 507.294 213.498 490.28 226.059C484.341 230.453 478.28 235.144 472.209 240.123C460.939 249.321 449.385 259.394 438.562 270.06C425.596 282.84 413.976 296.006 402.21 307.458C378.067 330.788 353.855 347.853 333.574 369.535C327.517 376.007 321.803 382.84 316.655 390.328M870.481 -46.7426C862.308 -55.2229 845.521 -27.3565 784.915 -21.9694C781.523 -21.6673 778.151 -21.5392 774.819 -21.3188C763.322 -20.5593 752.095 -19.8015 741.662 -17.5429C710.485 -10.9166 688.823 3.55383 666.796 27.6704C652.479 43.3448 638.818 63.7521 623.458 89.7552C618.899 97.4709 614.545 105.328 610.176 113.202C600.708 130.263 590.767 148.121 578.272 161.572C565.625 175.183 552.91 183.541 540.458 192.52C525.92 203.032 510.494 214.249 494.046 227.324C488.303 231.898 482.433 236.724 476.535 241.793C465.591 251.153 454.281 261.219 443.516 271.693C430.623 284.241 418.782 296.964 406.687 307.908C381.863 330.219 356.612 345.91 335.121 366.476C328.703 372.614 322.612 379.136 317.08 386.349M869.861 -49.1617C862.71 -56.5823 847.036 -26.7063 785.753 -20.5851C782.398 -20.2507 779.067 -20.0721 775.778 -19.829C764.397 -18.9486 753.324 -18.1825 743.001 -16.0846C712.09 -9.91584 689.949 3.04946 667.339 26.623C652.912 41.6624 639.006 61.5477 623.434 87.319C618.853 94.9021 614.478 102.63 610.108 110.384C600.64 127.182 590.846 144.737 578.844 158.451C566.696 172.329 554.517 181.628 542.527 191.443C528.527 202.93 513.697 215 497.811 228.589C492.265 233.343 486.586 238.304 480.861 243.461C470.243 252.983 459.175 263.042 448.47 273.326C435.652 285.644 423.588 297.922 411.164 308.36C385.658 329.65 359.37 343.967 336.668 363.416C329.888 369.223 323.42 375.432 317.505 382.369M869.241 -51.5782C863.11 -57.9377 848.545 -26.0703 786.592 -19.1996C783.276 -18.8314 779.987 -18.6107 776.738 -18.3408C765.473 -17.3618 754.557 -16.5651 744.34 -14.6293C713.696 -8.91947 691.084 2.55892 667.88 25.5712C653.347 39.9853 639.192 59.339 623.41 84.8813C618.804 92.3332 614.409 99.9318 610.038 107.563C600.568 124.097 590.924 141.35 579.413 155.328C567.765 169.471 556.121 179.712 544.594 190.363C531.131 202.827 516.897 215.748 501.574 229.85C496.223 234.783 490.738 239.88 485.183 245.126C474.892 254.809 464.066 264.864 453.42 274.955C440.676 287.042 428.39 298.876 415.637 308.805C389.45 329.077 362.122 342.019 338.21 360.354C331.068 365.827 324.223 371.725 317.927 378.387M868.621 -53.9974C863.512 -59.2972 850.049 -25.4539 787.432 -17.8169C784.153 -17.4163 780.904 -17.1519 777.697 -16.8524C766.546 -15.7749 755.787 -14.9476 745.679 -13.1711C715.303 -7.92026 692.226 2.08523 668.423 24.5237C653.787 38.3209 639.383 57.1372 623.386 82.4449C618.758 89.767 614.342 97.2345 609.969 104.746C600.498 121.018 591.001 137.967 579.985 152.209C568.836 166.62 557.728 177.801 546.664 189.287C533.741 202.727 520.101 216.501 505.342 231.118C500.187 236.231 494.893 241.464 489.511 246.797C479.544 256.641 468.963 266.689 458.378 276.59C445.707 288.445 433.199 299.836 420.117 309.257C393.248 328.508 364.882 340.075 339.759 357.294C332.257 362.434 325.034 368.021 318.355 374.408M868.001 -56.4136C863.915 -60.6538 851.549 -24.8554 788.27 -16.4298C785.03 -15.9982 781.819 -15.6889 778.657 -15.3611C767.622 -14.185 757.019 -13.3285 747.018 -11.7128C716.908 -6.92222 693.377 1.62859 668.967 23.4751C654.23 36.6638 639.578 54.9344 623.364 80.0103C618.715 87.2011 614.277 94.5388 609.903 101.929C600.431 117.938 591.082 134.582 580.559 149.09C569.911 163.768 559.335 175.888 548.735 188.211C536.349 202.629 523.304 217.255 509.109 232.384C504.151 237.677 499.049 243.044 493.836 248.468C484.195 258.473 473.857 268.514 463.331 278.225C450.733 289.851 438.004 300.795 424.594 309.71C397.044 327.942 367.639 338.135 341.305 354.237C333.441 359.044 325.842 364.318 318.779 370.43M867.381 -58.8327C864.317 -62.0132 853.04 -24.2764 789.108 -15.0483C785.904 -14.5857 782.737 -14.2315 779.615 -13.8741C768.694 -12.5995 758.248 -11.7123 748.357 -10.2573C718.513 -5.9243 694.535 1.1872 669.509 22.4235C654.674 35.0121 639.772 52.7314 623.338 77.5713C618.667 84.6323 614.207 91.836 609.833 99.1073C600.36 114.855 591.157 131.195 581.13 145.965C570.981 160.909 560.94 173.97 550.802 187.13C538.955 202.525 526.506 218.002 512.877 233.645C508.113 239.116 503.204 244.62 498.164 250.134C488.851 260.3 478.753 270.336 468.288 279.855C455.763 291.249 442.814 301.75 429.072 310.159C400.841 327.372 370.397 336.19 342.852 351.177C334.627 355.651 326.649 360.613 319.205 366.45M866.76 -61.2506C864.716 -63.37 854.525 -23.716 789.946 -13.6643C786.779 -13.1721 783.653 -12.7716 780.575 -12.3859C769.77 -11.0127 759.481 -10.0948 749.695 -8.80054C720.118 -4.92652 695.698 0.765142 670.05 21.3744C655.119 33.3728 639.968 50.5353 623.315 75.1349C618.623 82.0662 614.14 89.1387 609.766 96.2887C600.291 111.773 591.237 127.809 581.702 142.844C572.052 158.055 562.547 172.057 552.872 186.052C541.563 202.423 529.709 218.753 516.642 234.91C512.075 240.561 507.358 246.199 502.489 251.802C493.501 262.13 483.647 272.159 473.243 281.487C460.793 292.65 447.62 302.707 433.55 310.607C404.636 326.8 373.155 334.244 344.4 348.115C335.812 352.257 327.457 356.906 319.631 362.469M866.14 -63.667C865.118 -64.7267 856.005 -23.1749 790.784 -12.2773C787.653 -11.7542 784.571 -11.3085 781.533 -10.8933C770.843 -9.42289 760.71 -8.47304 751.034 -7.33944C721.724 -3.92438 696.867 0.368371 670.592 20.3283C655.562 31.7461 640.196 48.3632 623.289 72.7014C618.584 79.51 614.07 86.4442 609.695 93.473C600.22 108.695 591.313 124.428 582.271 139.726C573.122 155.204 564.152 170.145 554.938 184.978C544.167 202.326 532.909 219.507 520.406 236.179C516.035 242.01 511.51 247.784 506.813 253.475C498.15 263.962 488.539 273.985 478.194 283.123C465.818 294.056 452.425 303.669 438.025 311.062C408.43 326.235 375.91 332.305 345.945 345.06C336.997 348.868 328.264 353.206 320.056 358.493M865.52 -66.086C865.52 -66.086 857.477 -22.6547 791.623 -10.8944C725.769 0.865887 683.649 -14.8787 623.267 70.2638C581.542 129.1 555.636 198.298 511.141 255.14C492.834 278.527 469.549 298.867 442.504 311.509C412.227 325.662 378.67 330.358 347.492 341.997C338.182 345.474 329.074 349.497 320.481 354.511" stroke="white" stroke-width="0.197078" stroke-miterlimit="10"/>
</g>
<defs>
<clipPath id="clip0_82_53">
<rect width="686" height="373" fill="white"/>
</clipPath>
</defs>
</svg>
