<svg width="15" height="15" viewBox="0 0 15 15" fill="none" xmlns="http://www.w3.org/2000/svg">
<path d="M11.8067 9.00522C11.08 8.95856 10.3333 9.22522 9.78 9.77856C8.74 10.8186 8.74 12.5052 9.78 13.5519C10.1333 13.9052 10.5667 14.1386 11.0267 14.2519C11.28 14.3186 11.5467 14.3386 11.8133 14.3252C12.4467 14.2986 13.0667 14.0452 13.5533 13.5586C14.24 12.8719 14.4733 11.9052 14.2533 11.0319C14.1467 10.5719 13.9067 10.1386 13.5533 9.78522C13.0733 9.29856 12.4467 9.03856 11.8067 9.00522ZM13.16 11.6519C13.16 11.7919 13.1067 11.9119 13.0133 12.0052C12.92 12.0986 12.8 12.1519 12.66 12.1519H12.1667V12.6719C12.1667 12.8119 12.1133 12.9319 12.02 13.0252C11.9267 13.1186 11.8067 13.1719 11.6667 13.1719C11.3933 13.1719 11.1667 12.9452 11.1667 12.6719V12.1519H10.6667C10.3933 12.1519 10.1667 11.9252 10.1667 11.6519C10.1667 11.3786 10.3933 11.1519 10.6667 11.1519H11.1667V10.6786C11.1667 10.4052 11.3933 10.1786 11.6667 10.1786C11.94 10.1786 12.1667 10.4052 12.1667 10.6786V11.1519H12.66C12.94 11.1519 13.16 11.3786 13.16 11.6519Z" fill="#FACD66"/>
<path d="M9.79325 0.335938H4.20659C4.01992 0.335938 3.83992 0.342604 3.66659 0.369271C1.56659 0.562604 0.333252 1.96927 0.333252 4.20927V9.79594C0.333252 12.0359 1.56659 13.4426 3.66659 13.6359C3.83992 13.6626 4.01992 13.6693 4.20659 13.6693H7.99992C8.25992 13.6693 8.42658 13.3759 8.32658 13.1359C8.13325 12.6759 7.99992 12.1426 7.99992 11.6693C7.99992 9.64927 9.64658 8.0026 11.6666 8.0026C12.1733 8.0026 12.6666 8.1026 13.1199 8.3026C13.3666 8.40927 13.6666 8.2426 13.6666 7.97594V4.20927C13.6666 1.7826 12.2199 0.335938 9.79325 0.335938ZM8.65325 4.36927V7.5426C8.65325 7.54927 8.64658 7.55594 8.64658 7.56927C8.63325 8.3826 7.97325 9.0426 7.15325 9.0426C6.32658 9.0426 5.65992 8.36927 5.65992 7.54927C5.65992 6.7226 6.33325 6.05594 7.15325 6.05594C7.32658 6.05594 7.49325 6.08927 7.65325 6.14927V5.0226L5.00659 5.7426V8.20927C5.00659 8.21594 4.99992 8.2226 4.99992 8.22927C4.98659 9.0426 4.32659 9.69594 3.50659 9.69594C2.67992 9.69594 2.01325 9.0226 2.01325 8.2026C2.01325 7.3826 2.68659 6.70927 3.50659 6.70927C3.67992 6.70927 3.84659 6.7426 3.99992 6.8026V5.3626V4.19594C3.99992 3.57594 4.38659 3.07594 4.97992 2.91594L6.96658 2.36927C7.58658 2.2026 7.96659 2.36927 8.17992 2.52927C8.48659 2.7626 8.63992 3.1426 8.63992 3.64927V4.36927H8.65325Z" fill="#FACD66"/>
</svg>
