<svg width="4" height="13" viewBox="0 0 4 13" fill="none" xmlns="http://www.w3.org/2000/svg">
<path d="M2.25773 6.94662C2.63779 6.94662 2.94589 6.63852 2.94589 6.25846C2.94589 5.87841 2.63779 5.57031 2.25773 5.57031C1.87768 5.57031 1.56958 5.87841 1.56958 6.25846C1.56958 6.63852 1.87768 6.94662 2.25773 6.94662Z" stroke="#FACD66" stroke-width="1.3763" stroke-linecap="round" stroke-linejoin="round"/>
<path d="M2.25773 2.1263C2.63779 2.1263 2.94589 1.81821 2.94589 1.43815C2.94589 1.0581 2.63779 0.75 2.25773 0.75C1.87768 0.75 1.56958 1.0581 1.56958 1.43815C1.56958 1.81821 1.87768 2.1263 2.25773 2.1263Z" stroke="#FACD66" stroke-width="1.3763" stroke-linecap="round" stroke-linejoin="round"/>
<path d="M2.25773 11.7669C2.63779 11.7669 2.94589 11.4588 2.94589 11.0788C2.94589 10.6987 2.63779 10.3906 2.25773 10.3906C1.87768 10.3906 1.56958 10.6987 1.56958 11.0788C1.56958 11.4588 1.87768 11.7669 2.25773 11.7669Z" stroke="#FACD66" stroke-width="1.3763" stroke-linecap="round" stroke-linejoin="round"/>
</svg>
