<svg width="14" height="14" viewBox="0 0 14 14" fill="none" xmlns="http://www.w3.org/2000/svg">
<path d="M6.66667 0C10.3411 0 13.3333 2.99083 13.3333 6.67053C13.3333 10.3425 10.3411 13.3333 6.66667 13.3333C2.99228 13.3333 0 10.3425 0 6.67053C0 2.99083 2.99228 0 6.66667 0ZM5.90734 4.01994C5.76577 4.01994 5.63063 4.0521 5.50193 4.11642C5.34105 4.20646 5.21235 4.34797 5.14157 4.51519C5.09652 4.63097 5.02574 4.97829 5.02574 4.98472C4.95495 5.36421 4.91634 5.98167 4.91634 6.66345C4.91634 7.31372 4.95495 7.90481 5.01287 8.29072C5.0193 8.29715 5.09009 8.72809 5.16731 8.87602C5.30888 9.14616 5.58558 9.31339 5.8816 9.31339H5.90734C6.10039 9.30696 6.50579 9.13973 6.50579 9.1333C7.1879 8.8503 8.53282 7.96913 9.07336 7.38382L9.11197 7.34523C9.18275 7.27448 9.27284 7.16514 9.29215 7.13941C9.39511 7.00434 9.44659 6.83711 9.44659 6.67053C9.44659 6.48336 9.38867 6.3097 9.27928 6.16819C9.25354 6.14247 9.15701 6.03312 9.06692 5.94308C8.53925 5.37707 7.16216 4.45088 6.44144 4.16787C6.33205 4.12349 6.05534 4.02637 5.90734 4.01994Z" fill="#FACD66"/>
</svg>
