<svg width="31" height="33" viewBox="0 0 31 33" fill="none" xmlns="http://www.w3.org/2000/svg">
<path d="M14.2911 0.0892173L7.09577 1.63987C6.83785 1.69487 6.60657 1.83662 6.44049 2.04148C6.27441 2.24634 6.18356 2.50193 6.18309 2.76565V15.1488C5.6581 14.9664 5.10618 14.8736 4.55042 14.8743C2.03734 14.8743 0 16.7197 0 18.996C0 21.2723 2.03734 23.1177 4.55049 23.1177C6.27758 23.1177 8.00501 22.1789 8.72299 20.5783C9.34701 19.1873 9.10084 17.5151 9.10084 16.0233V6.12415L19.01 3.82264C18.9759 1.37438 16.6964 -0.429084 14.2912 0.0892837L14.2911 0.0892173Z" fill="#FACD66"/>
<path d="M14.2876 11.4975V24.7551C14.2874 24.7867 14.2799 24.8179 14.2656 24.8461C14.2513 24.8743 14.2307 24.8988 14.2053 24.9176C14.1799 24.9365 14.1505 24.9492 14.1193 24.9547C14.0882 24.9602 14.0562 24.9584 14.0259 24.9494C13.58 24.822 13.1186 24.7576 12.6549 24.758C10.1418 24.758 8.10449 26.6034 8.10449 28.8797C8.10449 31.1561 10.1418 33.0014 12.6549 33.0014C14.382 33.0014 16.1095 32.0626 16.8275 30.4621C17.4514 29.071 17.2053 27.3988 17.2053 25.907V15.124C17.2055 15.0476 17.2315 14.9735 17.2791 14.9138C17.3267 14.854 17.3932 14.8122 17.4676 14.795L27.1145 12.5545C27.1642 12.5428 27.2158 12.5425 27.2657 12.5536C27.3155 12.5646 27.3622 12.5868 27.4022 12.6184C27.4423 12.65 27.4747 12.6903 27.497 12.7362C27.5194 12.7821 27.5311 12.8324 27.5312 12.8835V23.7415C27.5311 23.7732 27.5236 23.8043 27.5093 23.8325C27.495 23.8608 27.4743 23.8853 27.449 23.9041C27.4236 23.923 27.3941 23.9357 27.363 23.9412C27.3319 23.9467 27.2999 23.9449 27.2695 23.9359C26.8237 23.8085 26.3623 23.744 25.8986 23.7445C23.3854 23.7445 21.3482 25.5898 21.3482 27.8662C21.3482 30.1426 23.3854 31.9879 25.8985 31.9879C27.4193 31.9879 28.9315 31.2006 29.7845 29.9125C30.611 28.6643 30.4494 27.3532 30.4489 25.9429C30.4482 23.4277 30.4482 20.9125 30.4489 18.3974V8.34214C30.4484 8.19039 30.414 8.04067 30.3481 7.90395C30.2823 7.76724 30.1867 7.64699 30.0683 7.55201C29.95 7.45704 29.8119 7.38974 29.6641 7.35505C29.5164 7.32037 29.3628 7.31917 29.2145 7.35156L15.2003 10.3717C14.9423 10.4267 14.7111 10.5685 14.545 10.7733C14.3789 10.9782 14.288 11.2338 14.2876 11.4975V11.4975Z" fill="#A4C7C6"/>
</svg>
