<svg width="19" height="19" viewBox="0 0 19 19" fill="none" xmlns="http://www.w3.org/2000/svg">
<path d="M13.75 2.75H12.8333V1.38417C12.8333 0.623333 12.21 0 11.4492 0H6.88417C6.12333 0 5.5 0.623333 5.5 1.38417V2.75H4.58333C3.575 2.75 2.75 3.575 2.75 4.58333V4.7025C3.04333 4.62 3.34583 4.58333 3.66667 4.58333H14.6667C14.9875 4.58333 15.29 4.62 15.5833 4.7025V4.58333C15.5833 3.575 14.7583 2.75 13.75 2.75Z" fill="#FACD66"/>
<path d="M15.5833 6.0801C15.29 5.9976 14.9875 5.96094 14.6667 5.96094H3.66667C3.34583 5.96094 3.04333 5.9976 2.75 6.0801C1.17333 6.4926 0 7.93177 0 9.6276V15.1276C0 17.1443 1.65 18.7943 3.66667 18.7943H14.6667C16.6833 18.7943 18.3333 17.1443 18.3333 15.1276V9.6276C18.3333 7.93177 17.16 6.4926 15.5833 6.0801ZM12.8333 10.5718V14.4401C12.8333 15.4851 11.9808 16.3376 10.9358 16.3376C9.89083 16.3376 9.03833 15.4851 9.03833 14.4401C9.03833 13.3951 9.89083 12.5426 10.9358 12.5426C11.1192 12.5426 11.2933 12.5793 11.4583 12.6251V11.4701L8.3875 12.3043V15.2468C8.3875 15.2559 8.3875 15.2651 8.37833 15.2743C8.36917 16.3101 7.51667 17.1534 6.48083 17.1534C5.43583 17.1534 4.58333 16.3009 4.58333 15.2468C4.58333 14.1926 5.43583 13.3493 6.48083 13.3493C6.66417 13.3493 6.83833 13.3859 7.0125 13.4318V11.7818V10.3609C7.0125 9.5726 7.5075 8.93094 8.25917 8.72927L10.6883 8.0601C11.4675 7.84927 11.9625 8.05094 12.2375 8.26177C12.5125 8.4726 12.8333 8.8851 12.8333 9.70094V10.5718Z" fill="#FACD66"/>
</svg>
