<svg width="19" height="20" viewBox="0 0 19 20" fill="none" xmlns="http://www.w3.org/2000/svg">
<path d="M5.27051 0.6875V3.4375H4.58301C4.34467 3.4375 4.11551 3.44667 3.89551 3.48333V0.6875C3.89551 0.311667 4.20717 0 4.58301 0C4.95884 0 5.27051 0.311667 5.27051 0.6875Z" fill="#EFEEE0" fill-opacity="0.25"/>
<path d="M13.75 3.4375H4.58333C4.345 3.4375 4.11583 3.44667 3.89583 3.48333C1.53083 3.75833 0 5.50917 0 8.02083V14.4375C0 17.1875 1.83333 19.0208 4.58333 19.0208H13.75C16.5 19.0208 18.3333 17.1875 18.3333 14.4375V8.02083C18.3333 5.27083 16.5 3.4375 13.75 3.4375ZM5.39 13.5208C4.125 13.5208 3.09833 12.4942 3.09833 11.2292C3.09833 9.96417 4.125 8.9375 5.39 8.9375C6.655 8.9375 7.68167 9.96417 7.68167 11.2292C7.68167 12.4942 6.655 13.5208 5.39 13.5208ZM11.3483 13.75H10.89C10.5142 13.75 10.2025 13.4383 10.2025 13.0625C10.2025 12.6867 10.5142 12.375 10.89 12.375H11.3483C11.7242 12.375 12.0358 12.6867 12.0358 13.0625C12.0358 13.4383 11.7242 13.75 11.3483 13.75ZM14.5567 13.75H14.0983C13.7225 13.75 13.4108 13.4383 13.4108 13.0625C13.4108 12.6867 13.7225 12.375 14.0983 12.375H14.5567C14.9325 12.375 15.2442 12.6867 15.2442 13.0625C15.2442 13.4383 14.9325 13.75 14.5567 13.75ZM14.5567 10.0833H10.89C10.5142 10.0833 10.2025 9.77167 10.2025 9.39583C10.2025 9.02 10.5142 8.70833 10.89 8.70833H14.5567C14.9325 8.70833 15.2442 9.02 15.2442 9.39583C15.2442 9.77167 14.9325 10.0833 14.5567 10.0833Z" fill="#EFEEE0" fill-opacity="0.25"/>
</svg>
