<svg width="15" height="13" viewBox="0 0 15 13" fill="none" xmlns="http://www.w3.org/2000/svg">
<path d="M1.77333 9.95426C1.64667 9.95426 1.52 9.9076 1.42 9.8076C0.506667 8.8876 0 7.67426 0 6.3876C0 3.71426 2.16667 1.54093 4.83333 1.54093L8.88 1.55426L8.15333 0.860929C7.95333 0.667595 7.94667 0.354262 8.14 0.154262C8.33333 -0.045738 8.64667 -0.0524047 8.84667 0.140929L10.4733 1.70093C10.62 1.84093 10.6667 2.06093 10.5933 2.2476C10.52 2.43426 10.3333 2.56093 10.1267 2.56093L4.83333 2.5476C2.72 2.5476 1 4.27426 1 6.39426C1 7.41426 1.4 8.38093 2.12667 9.1076C2.32 9.30093 2.32 9.62093 2.12667 9.81426C2.02667 9.9076 1.9 9.95426 1.77333 9.95426Z" fill="white"/>
<path d="M5.83335 12.9974C5.70668 12.9974 5.58668 12.9507 5.48668 12.8574L3.86002 11.2974C3.71335 11.1574 3.66668 10.9374 3.74002 10.7507C3.82002 10.5641 4.00668 10.4641 4.20668 10.4374L9.50668 10.4507C11.62 10.4507 13.34 8.72406 13.34 6.60406C13.34 5.58406 12.94 4.6174 12.2133 3.89073C12.02 3.6974 12.02 3.3774 12.2133 3.18406C12.4067 2.99073 12.7267 2.99073 12.92 3.18406C13.8333 4.10406 14.34 5.3174 14.34 6.60406C14.34 9.2774 12.1733 11.4507 9.50668 11.4507L5.46001 11.4374L6.18668 12.1307C6.38668 12.3241 6.39335 12.6374 6.20002 12.8374C6.09335 12.9441 5.96668 12.9974 5.83335 12.9974Z" fill="white"/>
<path d="M7.3335 8.77679C7.06016 8.77679 6.8335 8.55013 6.8335 8.27679V6.01679L6.70683 6.15679C6.52016 6.36346 6.20683 6.37679 6.00016 6.19679C5.7935 6.01679 5.78016 5.69679 5.96016 5.49012L6.96016 4.37679C7.10016 4.22346 7.32016 4.17012 7.5135 4.24346C7.70683 4.32346 7.8335 4.50346 7.8335 4.71679V8.28346C7.8335 8.55679 7.60683 8.77679 7.3335 8.77679Z" fill="white"/>
</svg>
