<svg width="13" height="12" viewBox="0 0 13 12" fill="none" xmlns="http://www.w3.org/2000/svg">
<path d="M12.9999 9.79714C12.9999 9.78381 12.9932 9.77047 12.9932 9.75714C12.9866 9.70381 12.9799 9.65047 12.9599 9.60381C12.9332 9.54381 12.8999 9.49714 12.8599 9.45047C12.8599 9.45047 12.8599 9.44381 12.8532 9.44381C12.8066 9.39714 12.7532 9.36381 12.6932 9.33714C12.6332 9.31047 12.5666 9.29714 12.4999 9.29714L9.38657 9.31047C9.38657 9.31047 9.38657 9.31047 9.3799 9.31047C8.9799 9.31047 8.59324 9.12381 8.35324 8.80381L7.5399 7.75714C7.37324 7.53714 7.0599 7.49714 6.8399 7.67047C6.6199 7.84381 6.5799 8.15047 6.75324 8.37047L7.56657 9.41714C7.9999 9.97714 8.6799 10.3105 9.38657 10.3105H9.39324L11.2932 10.3038L10.8199 10.7771C10.6266 10.9705 10.6266 11.2905 10.8199 11.4838C10.9199 11.5838 11.0466 11.6305 11.1732 11.6305C11.2999 11.6305 11.4266 11.5838 11.5266 11.4838L12.8599 10.1505C12.9066 10.1038 12.9399 10.0505 12.9666 9.99047C12.9866 9.92381 12.9999 9.85714 12.9999 9.79714Z" fill="white"/>
<path d="M4.11333 2.27365C3.68 1.67365 2.98667 1.32031 2.24667 1.32031C2.24 1.32031 2.24 1.32031 2.23333 1.32031L0.5 1.32698C0.226667 1.32698 0 1.55365 0 1.82698C0 2.10031 0.226667 2.32698 0.5 2.32698L2.24 2.32031H2.24667C2.66667 2.32031 3.06 2.52031 3.3 2.86031L4.02 3.86031C4.12 3.99365 4.27333 4.06698 4.42667 4.06698C4.52667 4.06698 4.63333 4.03365 4.72 3.97365C4.94667 3.80698 4.99333 3.49365 4.83333 3.27365L4.11333 2.27365Z" fill="white"/>
<path d="M12.9933 1.865C12.9933 1.85167 13 1.83833 13 1.83167C13 1.765 12.9867 1.69833 12.96 1.63833C12.9333 1.57833 12.9 1.525 12.8533 1.47833L11.52 0.145C11.3267 -0.0483333 11.0067 -0.0483333 10.8133 0.145C10.62 0.338333 10.62 0.658333 10.8133 0.851667L11.2867 1.325L9.46667 1.31833C9.46 1.31833 9.46 1.31833 9.45333 1.31833C8.68667 1.31833 7.96667 1.69833 7.54 2.345L3.28 8.73167C3.04 9.09167 2.63333 9.31167 2.2 9.31167H2.19333L0.5 9.29833C0.226667 9.29833 0 9.51833 0 9.79833C0 10.0717 0.22 10.2983 0.5 10.2983L2.2 10.305C2.20667 10.305 2.20667 10.305 2.21333 10.305C2.98667 10.305 3.7 9.925 4.12667 9.27833L8.38667 2.89167C8.62667 2.53167 9.03333 2.31167 9.46667 2.31167H9.47333L12.5 2.325C12.5667 2.325 12.6267 2.31167 12.6933 2.285C12.7533 2.25833 12.8067 2.225 12.8533 2.17833C12.8533 2.17833 12.8533 2.17167 12.86 2.17167C12.9 2.125 12.94 2.07833 12.96 2.01833C12.98 1.97167 12.9867 1.91833 12.9933 1.865Z" fill="white"/>
</svg>
