<svg width="17" height="13" viewBox="0 0 17 13" fill="none" xmlns="http://www.w3.org/2000/svg">
<path d="M12.5625 10.008C12.4425 10.008 12.33 9.97052 12.225 9.89552C11.9775 9.70802 11.925 9.35552 12.1125 9.10802C13.29 7.54052 13.29 5.35052 12.1125 3.78302C11.925 3.53552 11.9775 3.18302 12.225 2.99552C12.4725 2.80802 12.825 2.86052 13.0125 3.10802C14.4825 5.07302 14.4825 7.81802 13.0125 9.78302C12.9 9.93302 12.735 10.008 12.5625 10.008Z" fill="#EFEEE0"/>
<path d="M13.935 11.883C13.815 11.883 13.7025 11.8455 13.5975 11.7705C13.35 11.583 13.2975 11.2305 13.485 10.983C15.4875 8.31302 15.4875 4.57802 13.485 1.90802C13.2975 1.66052 13.35 1.30802 13.5975 1.12052C13.845 0.933017 14.1975 0.985517 14.385 1.23302C16.6875 4.30052 16.6875 8.59052 14.385 11.658C14.28 11.808 14.1075 11.883 13.935 11.883Z" fill="#EFEEE0"/>
<path d="M9.5775 0.27864C8.7375 -0.18636 7.665 -0.0663595 6.57 0.616141L4.38 1.98864C4.23 2.07864 4.0575 2.13114 3.885 2.13114H3.1875H2.8125C0.9975 2.13114 0 3.12864 0 4.94364V7.94364C0 9.75864 0.9975 10.7561 2.8125 10.7561H3.1875H3.885C4.0575 10.7561 4.23 10.8086 4.38 10.8986L6.57 12.2711C7.23 12.6836 7.875 12.8861 8.475 12.8861C8.865 12.8861 9.24 12.7961 9.5775 12.6086C10.41 12.1436 10.875 11.1761 10.875 9.88614V3.00114C10.875 1.71114 10.41 0.74364 9.5775 0.27864Z" fill="#EFEEE0"/>
</svg>
