<svg width="20" height="20" viewBox="0 0 20 20" fill="none" xmlns="http://www.w3.org/2000/svg">
<path d="M9.31266 6.20312H0.833496V13.839C0.833496 13.894 0.833496 13.949 0.842663 13.9948H9.31266V6.20312Z" fill="#EFEEE0" fill-opacity="0.25"/>
<path d="M6.04932 4.8326H9.31265V0.835938H6.07682V4.7226C6.07682 4.75927 6.05848 4.79594 6.04932 4.8326Z" fill="#EFEEE0" fill-opacity="0.25"/>
<path d="M4.7018 4.71656V0.976562C2.6668 1.39823 1.33764 2.7549 0.952637 4.82656H4.72014C4.71097 4.7899 4.7018 4.75323 4.7018 4.71656Z" fill="#EFEEE0" fill-opacity="0.25"/>
<path d="M13.8683 0.835938H10.6875V4.8326H13.8683V0.835938Z" fill="#EFEEE0" fill-opacity="0.25"/>
<path d="M15.2341 4.82792H19.0475C18.6625 2.73792 17.315 1.37208 15.2433 0.96875V4.80042C15.2433 4.80958 15.2341 4.81875 15.2341 4.82792Z" fill="#EFEEE0" fill-opacity="0.25"/>
<path d="M15.2432 19.0325C17.2507 18.6383 18.5707 17.355 19.0015 15.375H15.2432V19.0325Z" fill="#EFEEE0" fill-opacity="0.25"/>
<path d="M13.8683 15.375H10.6875V19.17H13.8683V15.375Z" fill="#EFEEE0" fill-opacity="0.25"/>
<path d="M10.6875 13.9948H19.1575C19.1667 13.949 19.1667 13.894 19.1667 13.839V6.20312H10.6875V13.9948Z" fill="#EFEEE0" fill-opacity="0.25"/>
<path d="M9.31249 15.375H6.07666V19.17H9.31249V15.375Z" fill="#EFEEE0" fill-opacity="0.25"/>
<path d="M0.998291 15.375C1.42912 17.3367 2.73079 18.62 4.70162 19.0233V15.375H0.998291Z" fill="#EFEEE0" fill-opacity="0.25"/>
</svg>
